Coordinates
version=1
nRows=60
nColumns=12
inDegrees=yes

Units are S.I. units (second, meters, Newtons, ...)
Angles are in degrees

endheader
time	SC_y	SC_z	SC_x	AC_y	AC_z	AC_x	GH_y	GH_z	GH_yy	EL_x	PS_y
       0.0              -36.69          13.77          66.13          63.74          -11.8         -3.043         -2.923         -13.34         -97.34           96.4          95.16
   0.02087              -36.69          13.77          66.13          63.74         -11.79         -3.042         -2.914         -13.33         -97.34          96.39          95.16
   0.04174              -36.69          13.77          66.12          63.75         -11.79          -3.04         -2.906         -13.32         -97.33          96.38          95.17
    0.0626              -36.69          13.77          66.12          63.75         -11.79         -3.037         -2.896         -13.31         -97.33          96.36          95.18
   0.08347               -36.7          13.76          66.11          63.75         -11.79         -3.035         -2.886          -13.3         -97.32          96.35          95.19
    0.1043               -36.7          13.76          66.11          63.75         -11.78         -3.033         -2.875         -13.29         -97.31          96.33          95.19
    0.1252               -36.7          13.76           66.1          63.75         -11.78          -3.03         -2.863         -13.28         -97.31          96.31           95.2
    0.1461               -36.7          13.76          66.09          63.75         -11.78         -3.027         -2.851         -13.27          -97.3          96.29          95.21
    0.1669              -36.71          13.75          66.09          63.75         -11.78         -3.024         -2.838         -13.25         -97.29          96.27          95.22
    0.1878              -36.71          13.75          66.08          63.75         -11.77         -3.021         -2.824         -13.24         -97.28          96.25          95.23
    0.2087              -36.71          13.75          66.07          63.75         -11.77         -3.018         -2.808         -13.22         -97.27          96.23          95.24
    0.2295              -36.72          13.75          66.06          63.75         -11.76         -3.014         -2.792          -13.2         -97.26           96.2          95.26
    0.2504              -36.72          13.74          66.05          63.75         -11.76          -3.01         -2.774         -13.19         -97.25          96.18          95.27
    0.2713              -36.73          13.74          66.04          63.75         -11.76         -3.006         -2.755         -13.17         -97.24          96.15          95.29
    0.2922              -36.73          13.74          66.03          63.75         -11.75         -3.001         -2.734         -13.14         -97.23          96.12           95.3
     0.313              -36.74          13.73          66.02          63.75         -11.75         -2.996         -2.712         -13.12         -97.21          96.08          95.32
    0.3339              -36.74          13.73          66.01          63.75         -11.74         -2.991         -2.687         -13.09          -97.2          96.04          95.34
    0.3548              -36.75          13.72           66.0          63.75         -11.73         -2.985         -2.661         -13.07         -97.18           96.0          95.36
    0.3756              -36.75          13.72          65.98          63.76         -11.73         -2.979         -2.632         -13.04         -97.17          95.96          95.38
    0.3965              -36.76          13.71          65.96          63.76         -11.72         -2.972           -2.6          -13.0         -97.15          95.91           95.4
    0.4174              -36.77           13.7          65.95          63.76         -11.71         -2.964         -2.565         -12.97         -97.12          95.86          95.43
    0.4382              -36.78           13.7          65.93          63.76          -11.7         -2.955         -2.527         -12.93          -97.1           95.8          95.46
    0.4591              -36.79          13.69          65.91          63.76         -11.69         -2.946         -2.484         -12.88         -97.07          95.73          95.49
      0.48               -36.8          13.68          65.88          63.76         -11.68         -2.935         -2.437         -12.83         -97.05          95.66          95.53
    0.5008              -36.81          13.67          65.86          63.77         -11.67         -2.924         -2.385         -12.78         -97.01          95.58          95.57
    0.5217              -36.82          13.66          65.83          63.77         -11.65         -2.911         -2.326         -12.71         -96.98          95.49          95.61
    0.5426              -36.84          13.65          65.79          63.77         -11.64         -2.896         -2.261         -12.65         -96.94           95.4          95.66
    0.5634              -36.85          13.63          65.75          63.77         -11.62          -2.88         -2.188         -12.57         -96.89          95.28          95.72
    0.5843              -36.87          13.62          65.71          63.78          -11.6         -2.862         -2.105         -12.48         -96.84          95.16          95.78
    0.6052              -36.89           13.6          65.66          63.78         -11.57         -2.841          -2.01         -12.38         -96.78          95.01          95.85
     0.626              -36.92          13.58          65.61          63.78         -11.55         -2.817         -1.903         -12.27         -96.72          94.85          95.93
    0.6469              -36.95          13.56          65.55          63.79         -11.52         -2.789         -1.779         -12.14         -96.64          94.66          96.03
    0.6678              -36.98          13.53          65.47           63.8         -11.48         -2.757         -1.636         -11.99         -96.56          94.44          96.14
    0.6886              -37.01           13.5          65.39           63.8         -11.44         -2.721         -1.471         -11.81         -96.45          94.19          96.26
    0.7095              -37.06          13.46          65.29          63.81          -11.4         -2.677         -1.277         -11.61         -96.34           93.9          96.41
    0.7304              -37.11          13.42          65.17          63.82         -11.34         -2.627         -1.048         -11.37          -96.2          93.55          96.59
    0.7513              -37.17          13.37          65.04          63.83         -11.28         -2.566        -0.7765         -11.08         -96.03          93.14          96.79
    0.7721              -37.24          13.31          64.87          63.84          -11.2         -2.494        -0.4509         -10.74         -95.83          92.64          97.04
     0.793              -37.33          13.24          64.67          63.86          -11.1         -2.406       -0.05695         -10.32         -95.59          92.04          97.34
    0.8139              -37.44          13.15          64.42          63.88         -10.98         -2.299         0.4243         -9.817         -95.29          91.31          97.71
    0.8347              -37.57          13.04          64.12           63.9         -10.84         -2.167          1.018         -9.191         -94.93           90.4          98.16
    0.8556              -37.74           12.9          63.74          63.93         -10.66         -2.003          1.759          -8.41         -94.48          89.28          98.72
    0.8765              -37.95          12.72          63.27          63.97         -10.43         -1.795          2.692         -7.427          -93.9          87.86          99.44
    0.8973              -38.21           12.5          62.66          64.01         -10.14         -1.532          3.878         -6.178         -93.18          86.05          100.3
    0.9182              -38.55          12.22          61.89          64.07         -9.776         -1.194          5.396         -4.578         -92.25          83.74          101.5
    0.9391              -38.99          11.86           60.9          64.15         -9.303         -0.761          7.344         -2.526         -91.05          80.77          103.0
    0.9599              -39.55          11.39          59.63          64.25         -8.698        -0.2078          9.833        0.09623         -89.53          76.99          104.9
    0.9808              -40.25          10.81          58.03          64.37         -7.938         0.4877          12.96          3.393         -87.61          72.22          107.3
     1.002               -41.1           10.1          56.09          64.52         -7.012          1.335          16.78           7.41         -85.28          66.42          110.2
     1.023              -42.09          9.271          53.83          64.69         -5.938          2.318           21.2          12.07         -82.57          59.69          113.5
     1.043              -43.17          8.379          51.39          64.88         -4.776          3.382          25.98          17.11         -79.64          52.41          117.2
     1.064              -44.24          7.486          48.95          65.07         -3.613          4.446          30.77          22.15         -76.71          45.12          120.8
     1.085              -45.23          6.661           46.7          65.24          -2.54          5.428          35.19          26.81          -74.0          38.39          124.2
     1.106              -46.09           5.95          44.76          65.39         -1.614          6.276           39.0          30.83         -71.66          32.59          127.1
     1.127              -46.79          5.366          43.16          65.51        -0.8537          6.971          42.13          34.12         -69.75          27.83          129.5
     1.148              -47.34          4.902          41.89          65.61        -0.2492          7.525          44.62          36.74         -68.22          24.04          131.4
     1.169              -47.78          4.538           40.9          65.69          0.224          7.958          46.57           38.8         -67.03          21.07          132.9
     1.189              -48.12          4.255          40.13          65.75         0.5927          8.295          48.08           40.4          -66.1          18.76          134.0
      1.21              -48.39          4.034          39.52           65.8         0.8808          8.559          49.27          41.65         -65.37          16.96          134.9
     1.231               -48.6           3.86          39.05          65.83          1.107          8.766           50.2          42.63          -64.8          15.54          135.6
